  0
SECTION
  2
HEADER
  9
$ACADVER
  1
AC1009
  9
$MEASUREMENT
  70
1
  9
$INSUNITS
  70
4
  9
$DIMLFAC
  40
1
  9
$INSBASE
  10
0.0
  20
0.0
  30
0.0
  9
$EXTMIN
  10
20
  20
20
  9
$EXTMAX
  10
305.376296725725
  20
114.928837100797
  9
$LIMMIN
  10
20
  20
20
  9
$LIMMAX
  10
305.376296725725
  20
114.928837100797
  9
$CLAYER
  8
0
  0
ENDSEC
  0
SECTION
  2
TABLES
  0
TABLE
  2
LTYPE
  70
2
  0
LTYPE
  2
CONTINUOUS
  70
65
  3
Solid line
  72
65
  73
0
  40
0
  0
LTYPE
  2
DASHED
  70
65
  3
 _ _ _ _ _ _ _ _ _ _ _ _ _ _ _ _ _ _ _ _ _ _
  72
65
  73
2
  40
2
  49
1
  49
-1
  0
ENDTAB
  0
TABLE
  2
LAYER
  70
1
  0
LAYER
  2
0
  70
0
  62
7
  6
CONTINUOUS
  0
ENDTAB
  0
ENDSEC
  0
SECTION
  2
BLOCKS
  0
ENDSEC
  0
SECTION
  2
ENTITIES
  0
ARC
  8
0
  10
303.380338029673
  20
112.931480726084
  30
0
  40
1.995958696052
  50
359.895406396395
  51
450.087398851718
  0
LINE
  8
0
  10
303.3772934
  20
114.9274371
  30
0
  11
22.0009134
  21
114.9288371
  31
0
  0
ARC
  8
0
  10
22.000856929885
  20
112.929357592787
  30
0
  40
1.99947950801
  50
89.998381829259
  51
180.043570252918
  0
LINE
  8
0
  10
20.001378
  20
112.9278371
  30
0
  11
20
  21
60.7650371
  31
0
  0
LINE
  8
0
  10
20
  20
60.7650371
  30
0
  11
23.5029734
  21
60.7650371
  31
0
  0
ARC
  8
0
  10
23.500893030836
  20
58.264587483673
  30
0
  40
2.500450481759
  50
-89.98395161272
  51
89.952330035115
  0
LINE
  8
0
  10
23.5015934
  20
55.7641371
  30
0
  11
20
  21
55.7641371
  31
0
  0
LINE
  8
0
  10
20
  20
55.7641371
  30
0
  11
20
  21
22.0009071
  31
0
  0
ARC
  8
0
  10
22.004303074594
  20
22.004303085277
  30
0
  40
2.004305951581
  50
180.097078849957
  51
269.903101549644
  0
LINE
  8
0
  10
22.0009134
  20
20
  30
0
  11
303.3772934
  21
20.0027559
  31
0
  0
ARC
  8
0
  10
303.38018940797
  20
21.998858842109
  30
0
  40
1.996105042917
  50
269.916873566879
  51
360.05879277423
  0
LINE
  8
0
  10
305.3762934
  20
22.0009071
  30
0
  11
305.3762934
  21
55.7641371
  31
0
  0
LINE
  8
0
  10
305.3762934
  20
55.7641371
  30
0
  11
301.8752934
  21
55.7641371
  31
0
  0
ARC
  8
0
  10
301.876743708123
  20
58.2645871
  30
0
  40
2.500450420603
  50
90.033232628183
  51
269.966767371817
  0
LINE
  8
0
  10
301.8752934
  20
60.7650371
  30
0
  11
305.3762934
  21
60.7650371
  31
0
  0
LINE
  8
0
  10
305.3762934
  20
60.7650371
  30
0
  11
305.3762934
  21
112.9278371
  31
0
  0
LINE
  8
0
  10
191.1192934
  20
22.3660871
  30
0
  11
191.1192934
  21
27.0666871
  31
0
  0
LINE
  8
0
  10
191.1192934
  20
27.0666871
  30
0
  11
192.6452934
  21
27.0666871
  31
0
  0
LINE
  8
0
  10
192.6452934
  20
27.0666871
  30
0
  11
192.6452934
  21
23.8364871
  31
0
  0
LINE
  8
0
  10
192.6452934
  20
23.8364871
  30
0
  11
199.3942934
  21
23.8364871
  31
0
  0
LINE
  8
0
  10
199.3942934
  20
23.8364871
  30
0
  11
199.3942934
  21
27.0666871
  31
0
  0
LINE
  8
0
  10
199.3942934
  20
27.0666871
  30
0
  11
200.2182934
  21
27.0666871
  31
0
  0
LINE
  8
0
  10
200.2182934
  20
27.0666871
  30
0
  11
200.2182934
  21
29.8654071
  31
0
  0
LINE
  8
0
  10
200.2182934
  20
29.8654071
  30
0
  11
199.3942934
  21
29.8654071
  31
0
  0
LINE
  8
0
  10
199.3942934
  20
29.8654071
  30
0
  11
199.3942934
  21
36.1354971
  31
0
  0
LINE
  8
0
  10
199.3942934
  20
36.1354971
  30
0
  11
197.6672934
  21
36.1354971
  31
0
  0
LINE
  8
0
  10
197.6672934
  20
36.1354971
  30
0
  11
197.6672934
  21
37.3357671
  31
0
  0
LINE
  8
0
  10
197.6672934
  20
37.3357671
  30
0
  11
194.3682934
  21
37.3357671
  31
0
  0
LINE
  8
0
  10
194.3682934
  20
37.3357671
  30
0
  11
194.3682934
  21
36.1354971
  31
0
  0
LINE
  8
0
  10
194.3682934
  20
36.1354971
  30
0
  11
192.6452934
  21
36.1354971
  31
0
  0
LINE
  8
0
  10
192.6452934
  20
36.1354971
  30
0
  11
192.6452934
  21
31.6665171
  31
0
  0
LINE
  8
0
  10
192.6452934
  20
31.6665171
  30
0
  11
191.1192934
  21
31.6665171
  31
0
  0
LINE
  8
0
  10
191.1192934
  20
31.6665171
  30
0
  11
191.1192934
  21
36.3656371
  31
0
  0
LINE
  8
0
  10
191.1192934
  20
36.3656371
  30
0
  11
177.1192934
  21
36.3656371
  31
0
  0
LINE
  8
0
  10
177.1192934
  20
36.3656371
  30
0
  11
177.1192934
  21
31.6665171
  31
0
  0
LINE
  8
0
  10
177.1192934
  20
31.6665171
  30
0
  11
175.5932934
  21
31.6665171
  31
0
  0
LINE
  8
0
  10
175.5932934
  20
31.6665171
  30
0
  11
175.5932934
  21
36.1354971
  31
0
  0
LINE
  8
0
  10
175.5932934
  20
36.1354971
  30
0
  11
173.8692934
  21
36.1354971
  31
0
  0
LINE
  8
0
  10
173.8692934
  20
36.1354971
  30
0
  11
173.8692934
  21
37.3357671
  31
0
  0
LINE
  8
0
  10
173.8692934
  20
37.3357671
  30
0
  11
170.5682934
  21
37.3357671
  31
0
  0
LINE
  8
0
  10
170.5682934
  20
37.3357671
  30
0
  11
170.5682934
  21
36.1354971
  31
0
  0
LINE
  8
0
  10
170.5682934
  20
36.1354971
  30
0
  11
168.8432934
  21
36.1354971
  31
0
  0
LINE
  8
0
  10
168.8432934
  20
36.1354971
  30
0
  11
168.8432934
  21
29.8654071
  31
0
  0
LINE
  8
0
  10
168.8432934
  20
29.8654071
  30
0
  11
168.0192934
  21
29.8654071
  31
0
  0
LINE
  8
0
  10
168.0192934
  20
29.8654071
  30
0
  11
168.0192934
  21
27.0666871
  31
0
  0
LINE
  8
0
  10
168.0192934
  20
27.0666871
  30
0
  11
168.8432934
  21
27.0666871
  31
0
  0
LINE
  8
0
  10
168.8432934
  20
27.0666871
  30
0
  11
168.8432934
  21
23.8364871
  31
0
  0
LINE
  8
0
  10
168.8432934
  20
23.8364871
  30
0
  11
175.5932934
  21
23.8364871
  31
0
  0
LINE
  8
0
  10
175.5932934
  20
23.8364871
  30
0
  11
175.5932934
  21
27.0666871
  31
0
  0
LINE
  8
0
  10
175.5932934
  20
27.0666871
  30
0
  11
177.1192934
  21
27.0666871
  31
0
  0
LINE
  8
0
  10
177.1192934
  20
27.0666871
  30
0
  11
177.1192934
  21
22.3660871
  31
0
  0
LINE
  8
0
  10
177.1192934
  20
22.3660871
  30
0
  11
191.1192934
  21
22.3660871
  31
0
  0
LINE
  8
0
  10
22.3385334
  20
36.3656371
  30
0
  11
36.3379934
  21
36.3656371
  31
0
  0
LINE
  8
0
  10
36.3379934
  20
36.3656371
  30
0
  11
36.3379934
  21
22.3660871
  31
0
  0
LINE
  8
0
  10
36.3379934
  20
22.3660871
  30
0
  11
22.3385334
  21
22.3660871
  31
0
  0
LINE
  8
0
  10
22.3385334
  20
22.3660871
  30
0
  11
22.3385334
  21
36.3656371
  31
0
  0
LINE
  8
0
  10
41.3884934
  20
36.3656371
  30
0
  11
55.3879934
  21
36.3656371
  31
0
  0
LINE
  8
0
  10
55.3879934
  20
36.3656371
  30
0
  11
55.3879934
  21
22.3660871
  31
0
  0
LINE
  8
0
  10
55.3879934
  20
22.3660871
  30
0
  11
41.3884934
  21
22.3660871
  31
0
  0
LINE
  8
0
  10
41.3884934
  20
22.3660871
  30
0
  11
41.3884934
  21
36.3656371
  31
0
  0
LINE
  8
0
  10
60.4386934
  20
36.3656371
  30
0
  11
74.4379934
  21
36.3656371
  31
0
  0
LINE
  8
0
  10
74.4379934
  20
36.3656371
  30
0
  11
74.4379934
  21
22.3660871
  31
0
  0
LINE
  8
0
  10
74.4379934
  20
22.3660871
  30
0
  11
60.4386934
  21
22.3660871
  31
0
  0
LINE
  8
0
  10
60.4386934
  20
22.3660871
  30
0
  11
60.4386934
  21
36.3656371
  31
0
  0
LINE
  8
0
  10
136.6382934
  20
36.3656371
  30
0
  11
150.6382934
  21
36.3656371
  31
0
  0
LINE
  8
0
  10
150.6382934
  20
36.3656371
  30
0
  11
150.6382934
  21
22.3660871
  31
0
  0
LINE
  8
0
  10
150.6382934
  20
22.3660871
  30
0
  11
136.6382934
  21
22.3660871
  31
0
  0
LINE
  8
0
  10
136.6382934
  20
22.3660871
  30
0
  11
136.6382934
  21
36.3656371
  31
0
  0
LINE
  8
0
  10
212.8372934
  20
36.3656371
  30
0
  11
212.8372934
  21
30.7859371
  31
0
  0
ARC
  8
0
  10
210.673656041071
  20
29.5649821
  30
0
  40
2.484362641197
  50
29.436327184423
  51
330.563672815577
  0
LINE
  8
0
  10
212.8372934
  20
28.3440271
  30
0
  11
212.8372934
  21
22.3660871
  31
0
  0
LINE
  8
0
  10
212.8372934
  20
22.3660871
  30
0
  11
226.8382934
  21
22.3660871
  31
0
  0
LINE
  8
0
  10
226.8382934
  20
22.3660871
  30
0
  11
226.8382934
  21
36.3656371
  31
0
  0
LINE
  8
0
  10
226.8382934
  20
36.3656371
  30
0
  11
212.8372934
  21
36.3656371
  31
0
  0
LINE
  8
0
  10
231.8882934
  20
36.3656371
  30
0
  11
245.8882934
  21
36.3656371
  31
0
  0
LINE
  8
0
  10
245.8882934
  20
36.3656371
  30
0
  11
245.8882934
  21
22.3660871
  31
0
  0
LINE
  8
0
  10
245.8882934
  20
22.3660871
  30
0
  11
231.8882934
  21
22.3660871
  31
0
  0
LINE
  8
0
  10
231.8882934
  20
22.3660871
  30
0
  11
231.8882934
  21
36.3656371
  31
0
  0
LINE
  8
0
  10
250.9382934
  20
36.3656371
  30
0
  11
264.9382934
  21
36.3656371
  31
0
  0
LINE
  8
0
  10
264.9382934
  20
36.3656371
  30
0
  11
264.9382934
  21
22.3660871
  31
0
  0
LINE
  8
0
  10
264.9382934
  20
22.3660871
  30
0
  11
250.9382934
  21
22.3660871
  31
0
  0
LINE
  8
0
  10
250.9382934
  20
22.3660871
  30
0
  11
250.9382934
  21
36.3656371
  31
0
  0
LINE
  8
0
  10
269.9872934
  20
36.3656371
  30
0
  11
283.9882934
  21
36.3656371
  31
0
  0
LINE
  8
0
  10
283.9882934
  20
36.3656371
  30
0
  11
283.9882934
  21
22.3660871
  31
0
  0
LINE
  8
0
  10
283.9882934
  20
22.3660871
  30
0
  11
269.9872934
  21
22.3660871
  31
0
  0
LINE
  8
0
  10
269.9872934
  20
22.3660871
  30
0
  11
269.9872934
  21
36.3656371
  31
0
  0
LINE
  8
0
  10
289.0372934
  20
36.3656371
  30
0
  11
303.0382934
  21
36.3656371
  31
0
  0
LINE
  8
0
  10
303.0382934
  20
36.3656371
  30
0
  11
303.0382934
  21
22.3660871
  31
0
  0
LINE
  8
0
  10
303.0382934
  20
22.3660871
  30
0
  11
289.0372934
  21
22.3660871
  31
0
  0
LINE
  8
0
  10
289.0372934
  20
22.3660871
  30
0
  11
289.0372934
  21
36.3656371
  31
0
  0
LINE
  8
0
  10
22.3385334
  20
55.4155371
  30
0
  11
36.3379934
  21
55.4155371
  31
0
  0
LINE
  8
0
  10
36.3379934
  20
55.4155371
  30
0
  11
36.3379934
  21
41.4161371
  31
0
  0
LINE
  8
0
  10
36.3379934
  20
41.4161371
  30
0
  11
22.3385334
  21
41.4161371
  31
0
  0
LINE
  8
0
  10
22.3385334
  20
41.4161371
  30
0
  11
22.3385334
  21
55.4155371
  31
0
  0
LINE
  8
0
  10
41.3884934
  20
55.4155371
  30
0
  11
55.3879934
  21
55.4155371
  31
0
  0
LINE
  8
0
  10
55.3879934
  20
55.4155371
  30
0
  11
55.3879934
  21
41.4161371
  31
0
  0
LINE
  8
0
  10
55.3879934
  20
41.4161371
  30
0
  11
41.3884934
  21
41.4161371
  31
0
  0
LINE
  8
0
  10
41.3884934
  20
41.4161371
  30
0
  11
41.3884934
  21
55.4155371
  31
0
  0
LINE
  8
0
  10
60.4386934
  20
55.4155371
  30
0
  11
74.4379934
  21
55.4155371
  31
0
  0
LINE
  8
0
  10
74.4379934
  20
55.4155371
  30
0
  11
74.4379934
  21
41.4161371
  31
0
  0
LINE
  8
0
  10
74.4379934
  20
41.4161371
  30
0
  11
60.4386934
  21
41.4161371
  31
0
  0
LINE
  8
0
  10
60.4386934
  20
41.4161371
  30
0
  11
60.4386934
  21
55.4155371
  31
0
  0
LINE
  8
0
  10
79.4872934
  20
55.4155371
  30
0
  11
93.4879934
  21
55.4155371
  31
0
  0
LINE
  8
0
  10
93.4879934
  20
55.4155371
  30
0
  11
93.4879934
  21
41.4161371
  31
0
  0
LINE
  8
0
  10
93.4879934
  20
41.4161371
  30
0
  11
79.4872934
  21
41.4161371
  31
0
  0
LINE
  8
0
  10
79.4872934
  20
41.4161371
  30
0
  11
79.4872934
  21
55.4155371
  31
0
  0
LINE
  8
0
  10
98.5386934
  20
55.4155371
  30
0
  11
112.5379934
  21
55.4155371
  31
0
  0
LINE
  8
0
  10
112.5379934
  20
55.4155371
  30
0
  11
112.5379934
  21
41.4161371
  31
0
  0
LINE
  8
0
  10
112.5379934
  20
41.4161371
  30
0
  11
98.5386934
  21
41.4161371
  31
0
  0
LINE
  8
0
  10
98.5386934
  20
41.4161371
  30
0
  11
98.5386934
  21
55.4155371
  31
0
  0
LINE
  8
0
  10
117.5886934
  20
55.4155371
  30
0
  11
131.5882934
  21
55.4155371
  31
0
  0
LINE
  8
0
  10
131.5882934
  20
55.4155371
  30
0
  11
131.5882934
  21
41.4161371
  31
0
  0
LINE
  8
0
  10
131.5882934
  20
41.4161371
  30
0
  11
117.5886934
  21
41.4161371
  31
0
  0
LINE
  8
0
  10
117.5886934
  20
41.4161371
  30
0
  11
117.5886934
  21
55.4155371
  31
0
  0
LINE
  8
0
  10
136.6382934
  20
55.4155371
  30
0
  11
150.6382934
  21
55.4155371
  31
0
  0
LINE
  8
0
  10
150.6382934
  20
55.4155371
  30
0
  11
150.6382934
  21
41.4161371
  31
0
  0
LINE
  8
0
  10
150.6382934
  20
41.4161371
  30
0
  11
136.6382934
  21
41.4161371
  31
0
  0
LINE
  8
0
  10
136.6382934
  20
41.4161371
  30
0
  11
136.6382934
  21
55.4155371
  31
0
  0
LINE
  8
0
  10
155.6882934
  20
55.4155371
  30
0
  11
169.6882934
  21
55.4155371
  31
0
  0
LINE
  8
0
  10
169.6882934
  20
55.4155371
  30
0
  11
169.6882934
  21
41.4161371
  31
0
  0
LINE
  8
0
  10
169.6882934
  20
41.4161371
  30
0
  11
155.6882934
  21
41.4161371
  31
0
  0
LINE
  8
0
  10
155.6882934
  20
41.4161371
  30
0
  11
155.6882934
  21
55.4155371
  31
0
  0
LINE
  8
0
  10
174.7372934
  20
55.4155371
  30
0
  11
188.7382934
  21
55.4155371
  31
0
  0
LINE
  8
0
  10
188.7382934
  20
55.4155371
  30
0
  11
188.7382934
  21
41.4161371
  31
0
  0
LINE
  8
0
  10
188.7382934
  20
41.4161371
  30
0
  11
174.7372934
  21
41.4161371
  31
0
  0
LINE
  8
0
  10
174.7372934
  20
41.4161371
  30
0
  11
174.7372934
  21
55.4155371
  31
0
  0
LINE
  8
0
  10
193.7882934
  20
55.4155371
  30
0
  11
207.7882934
  21
55.4155371
  31
0
  0
LINE
  8
0
  10
207.7882934
  20
55.4155371
  30
0
  11
207.7882934
  21
41.4161371
  31
0
  0
LINE
  8
0
  10
207.7882934
  20
41.4161371
  30
0
  11
193.7882934
  21
41.4161371
  31
0
  0
LINE
  8
0
  10
193.7882934
  20
41.4161371
  30
0
  11
193.7882934
  21
55.4155371
  31
0
  0
LINE
  8
0
  10
212.8372934
  20
55.4155371
  30
0
  11
226.8382934
  21
55.4155371
  31
0
  0
LINE
  8
0
  10
226.8382934
  20
55.4155371
  30
0
  11
226.8382934
  21
41.4161371
  31
0
  0
LINE
  8
0
  10
226.8382934
  20
41.4161371
  30
0
  11
212.8372934
  21
41.4161371
  31
0
  0
LINE
  8
0
  10
212.8372934
  20
41.4161371
  30
0
  11
212.8372934
  21
55.4155371
  31
0
  0
LINE
  8
0
  10
231.8882934
  20
55.4155371
  30
0
  11
245.8882934
  21
55.4155371
  31
0
  0
LINE
  8
0
  10
245.8882934
  20
55.4155371
  30
0
  11
245.8882934
  21
41.4161371
  31
0
  0
LINE
  8
0
  10
245.8882934
  20
41.4161371
  30
0
  11
231.8882934
  21
41.4161371
  31
0
  0
LINE
  8
0
  10
231.8882934
  20
41.4161371
  30
0
  11
231.8882934
  21
55.4155371
  31
0
  0
LINE
  8
0
  10
250.9382934
  20
55.4155371
  30
0
  11
264.9382934
  21
55.4155371
  31
0
  0
LINE
  8
0
  10
264.9382934
  20
55.4155371
  30
0
  11
264.9382934
  21
41.4161371
  31
0
  0
LINE
  8
0
  10
264.9382934
  20
41.4161371
  30
0
  11
250.9382934
  21
41.4161371
  31
0
  0
LINE
  8
0
  10
250.9382934
  20
41.4161371
  30
0
  11
250.9382934
  21
55.4155371
  31
0
  0
LINE
  8
0
  10
269.9872934
  20
55.4155371
  30
0
  11
283.9882934
  21
55.4155371
  31
0
  0
LINE
  8
0
  10
283.9882934
  20
55.4155371
  30
0
  11
283.9882934
  21
41.4161371
  31
0
  0
LINE
  8
0
  10
283.9882934
  20
41.4161371
  30
0
  11
269.9872934
  21
41.4161371
  31
0
  0
LINE
  8
0
  10
269.9872934
  20
41.4161371
  30
0
  11
269.9872934
  21
55.4155371
  31
0
  0
LINE
  8
0
  10
289.0372934
  20
55.4155371
  30
0
  11
303.0382934
  21
55.4155371
  31
0
  0
LINE
  8
0
  10
303.0382934
  20
55.4155371
  30
0
  11
303.0382934
  21
41.4161371
  31
0
  0
LINE
  8
0
  10
303.0382934
  20
41.4161371
  30
0
  11
289.0372934
  21
41.4161371
  31
0
  0
LINE
  8
0
  10
289.0372934
  20
41.4161371
  30
0
  11
289.0372934
  21
55.4155371
  31
0
  0
LINE
  8
0
  10
29.4822734
  20
74.4641371
  30
0
  11
43.4830934
  21
74.4641371
  31
0
  0
LINE
  8
0
  10
43.4830934
  20
74.4641371
  30
0
  11
43.4830934
  21
60.4648371
  31
0
  0
LINE
  8
0
  10
43.4830934
  20
60.4648371
  30
0
  11
29.4822734
  21
60.4648371
  31
0
  0
LINE
  8
0
  10
29.4822734
  20
60.4648371
  30
0
  11
29.4822734
  21
74.4641371
  31
0
  0
LINE
  8
0
  10
55.6761934
  20
74.4641371
  30
0
  11
69.6768934
  21
74.4641371
  31
0
  0
LINE
  8
0
  10
69.6768934
  20
74.4641371
  30
0
  11
69.6768934
  21
60.4648371
  31
0
  0
LINE
  8
0
  10
69.6768934
  20
60.4648371
  30
0
  11
55.6761934
  21
60.4648371
  31
0
  0
LINE
  8
0
  10
55.6761934
  20
60.4648371
  30
0
  11
55.6761934
  21
74.4641371
  31
0
  0
LINE
  8
0
  10
74.7247934
  20
74.4641371
  30
0
  11
88.7254934
  21
74.4641371
  31
0
  0
LINE
  8
0
  10
88.7254934
  20
74.4641371
  30
0
  11
88.7254934
  21
60.4648371
  31
0
  0
LINE
  8
0
  10
88.7254934
  20
60.4648371
  30
0
  11
74.7247934
  21
60.4648371
  31
0
  0
LINE
  8
0
  10
74.7247934
  20
60.4648371
  30
0
  11
74.7247934
  21
74.4641371
  31
0
  0
LINE
  8
0
  10
93.7761934
  20
74.4641371
  30
0
  11
107.7754934
  21
74.4641371
  31
0
  0
LINE
  8
0
  10
107.7754934
  20
74.4641371
  30
0
  11
107.7754934
  21
60.4648371
  31
0
  0
LINE
  8
0
  10
107.7754934
  20
60.4648371
  30
0
  11
93.7761934
  21
60.4648371
  31
0
  0
LINE
  8
0
  10
93.7761934
  20
60.4648371
  30
0
  11
93.7761934
  21
74.4641371
  31
0
  0
LINE
  8
0
  10
112.8261934
  20
74.4641371
  30
0
  11
126.8252934
  21
74.4641371
  31
0
  0
LINE
  8
0
  10
126.8252934
  20
74.4641371
  30
0
  11
126.8252934
  21
60.4648371
  31
0
  0
LINE
  8
0
  10
126.8252934
  20
60.4648371
  30
0
  11
112.8261934
  21
60.4648371
  31
0
  0
LINE
  8
0
  10
112.8261934
  20
60.4648371
  30
0
  11
112.8261934
  21
74.4641371
  31
0
  0
LINE
  8
0
  10
131.8742934
  20
74.4641371
  30
0
  11
145.8772934
  21
74.4641371
  31
0
  0
LINE
  8
0
  10
145.8772934
  20
74.4641371
  30
0
  11
145.8772934
  21
60.4648371
  31
0
  0
LINE
  8
0
  10
145.8772934
  20
60.4648371
  30
0
  11
131.8742934
  21
60.4648371
  31
0
  0
LINE
  8
0
  10
131.8742934
  20
60.4648371
  30
0
  11
131.8742934
  21
74.4641371
  31
0
  0
LINE
  8
0
  10
150.9262934
  20
74.4641371
  30
0
  11
164.9252934
  21
74.4641371
  31
0
  0
LINE
  8
0
  10
164.9252934
  20
74.4641371
  30
0
  11
164.9252934
  21
60.4648371
  31
0
  0
LINE
  8
0
  10
164.9252934
  20
60.4648371
  30
0
  11
150.9262934
  21
60.4648371
  31
0
  0
LINE
  8
0
  10
150.9262934
  20
60.4648371
  30
0
  11
150.9262934
  21
74.4641371
  31
0
  0
LINE
  8
0
  10
169.9762934
  20
74.4641371
  30
0
  11
183.9752934
  21
74.4641371
  31
0
  0
LINE
  8
0
  10
183.9752934
  20
74.4641371
  30
0
  11
183.9752934
  21
60.4648371
  31
0
  0
LINE
  8
0
  10
183.9752934
  20
60.4648371
  30
0
  11
169.9762934
  21
60.4648371
  31
0
  0
LINE
  8
0
  10
169.9762934
  20
60.4648371
  30
0
  11
169.9762934
  21
74.4641371
  31
0
  0
LINE
  8
0
  10
189.0262934
  20
74.4641371
  30
0
  11
203.0272934
  21
74.4641371
  31
0
  0
LINE
  8
0
  10
203.0272934
  20
74.4641371
  30
0
  11
203.0272934
  21
60.4648371
  31
0
  0
LINE
  8
0
  10
203.0272934
  20
60.4648371
  30
0
  11
189.0262934
  21
60.4648371
  31
0
  0
LINE
  8
0
  10
189.0262934
  20
60.4648371
  30
0
  11
189.0262934
  21
74.4641371
  31
0
  0
LINE
  8
0
  10
208.0762934
  20
74.4641371
  30
0
  11
222.0752934
  21
74.4641371
  31
0
  0
LINE
  8
0
  10
222.0752934
  20
74.4641371
  30
0
  11
222.0752934
  21
60.4648371
  31
0
  0
LINE
  8
0
  10
222.0752934
  20
60.4648371
  30
0
  11
208.0762934
  21
60.4648371
  31
0
  0
LINE
  8
0
  10
208.0762934
  20
60.4648371
  30
0
  11
208.0762934
  21
74.4641371
  31
0
  0
LINE
  8
0
  10
227.1262934
  20
74.4641371
  30
0
  11
241.1272934
  21
74.4641371
  31
0
  0
LINE
  8
0
  10
241.1272934
  20
74.4641371
  30
0
  11
241.1272934
  21
60.4648371
  31
0
  0
LINE
  8
0
  10
241.1272934
  20
60.4648371
  30
0
  11
227.1262934
  21
60.4648371
  31
0
  0
LINE
  8
0
  10
227.1262934
  20
60.4648371
  30
0
  11
227.1262934
  21
74.4641371
  31
0
  0
LINE
  8
0
  10
246.1762934
  20
74.4641371
  30
0
  11
260.1772934
  21
74.4641371
  31
0
  0
LINE
  8
0
  10
260.1772934
  20
74.4641371
  30
0
  11
260.1772934
  21
60.4648371
  31
0
  0
LINE
  8
0
  10
260.1772934
  20
60.4648371
  30
0
  11
246.1762934
  21
60.4648371
  31
0
  0
LINE
  8
0
  10
246.1762934
  20
60.4648371
  30
0
  11
246.1762934
  21
74.4641371
  31
0
  0
LINE
  8
0
  10
265.2262934
  20
74.4641371
  30
0
  11
279.2252934
  21
74.4641371
  31
0
  0
LINE
  8
0
  10
279.2252934
  20
74.4641371
  30
0
  11
279.2252934
  21
60.4648371
  31
0
  0
LINE
  8
0
  10
279.2252934
  20
60.4648371
  30
0
  11
265.2262934
  21
60.4648371
  31
0
  0
LINE
  8
0
  10
265.2262934
  20
60.4648371
  30
0
  11
265.2262934
  21
74.4641371
  31
0
  0
LINE
  8
0
  10
293.1562934
  20
93.0911371
  30
0
  11
293.1562934
  21
92.2656371
  31
0
  0
LINE
  8
0
  10
293.1562934
  20
92.2656371
  30
0
  11
286.8872934
  21
92.2656371
  31
0
  0
LINE
  8
0
  10
286.8872934
  20
92.2656371
  30
0
  11
286.8872934
  21
90.5402371
  31
0
  0
LINE
  8
0
  10
286.8872934
  20
90.5402371
  30
0
  11
285.6872934
  21
90.5402371
  31
0
  0
LINE
  8
0
  10
285.6872934
  20
90.5402371
  30
0
  11
285.6872934
  21
87.2414371
  31
0
  0
LINE
  8
0
  10
285.6872934
  20
87.2414371
  30
0
  11
286.8872934
  21
87.2414371
  31
0
  0
LINE
  8
0
  10
286.8872934
  20
87.2414371
  30
0
  11
286.8872934
  21
85.5159371
  31
0
  0
LINE
  8
0
  10
286.8872934
  20
85.5159371
  30
0
  11
291.3562934
  21
85.5159371
  31
0
  0
LINE
  8
0
  10
291.3562934
  20
85.5159371
  30
0
  11
291.3562934
  21
83.9905371
  31
0
  0
LINE
  8
0
  10
291.3562934
  20
83.9905371
  30
0
  11
286.6562934
  21
83.9905371
  31
0
  0
LINE
  8
0
  10
286.6562934
  20
83.9905371
  30
0
  11
286.6562934
  21
69.9909371
  31
0
  0
LINE
  8
0
  10
286.6562934
  20
69.9909371
  30
0
  11
291.3562934
  21
69.9909371
  31
0
  0
LINE
  8
0
  10
291.3562934
  20
69.9909371
  30
0
  11
291.3562934
  21
68.4641371
  31
0
  0
LINE
  8
0
  10
291.3562934
  20
68.4641371
  30
0
  11
286.8872934
  21
68.4641371
  31
0
  0
LINE
  8
0
  10
286.8872934
  20
68.4641371
  30
0
  11
286.8872934
  21
66.7404371
  31
0
  0
LINE
  8
0
  10
286.8872934
  20
66.7404371
  30
0
  11
285.6872934
  21
66.7404371
  31
0
  0
LINE
  8
0
  10
285.6872934
  20
66.7404371
  30
0
  11
285.6872934
  21
63.4398371
  31
0
  0
LINE
  8
0
  10
285.6872934
  20
63.4398371
  30
0
  11
286.8872934
  21
63.4398371
  31
0
  0
LINE
  8
0
  10
286.8872934
  20
63.4398371
  30
0
  11
286.8872934
  21
61.7147371
  31
0
  0
LINE
  8
0
  10
286.8872934
  20
61.7147371
  30
0
  11
293.1562934
  21
61.7147371
  31
0
  0
LINE
  8
0
  10
293.1562934
  20
61.7147371
  30
0
  11
293.1562934
  21
60.8906371
  31
0
  0
LINE
  8
0
  10
293.1562934
  20
60.8906371
  30
0
  11
295.9562934
  21
60.8906371
  31
0
  0
LINE
  8
0
  10
295.9562934
  20
60.8906371
  30
0
  11
295.9562934
  21
61.7147371
  31
0
  0
LINE
  8
0
  10
295.9562934
  20
61.7147371
  30
0
  11
299.1862934
  21
61.7147371
  31
0
  0
LINE
  8
0
  10
299.1862934
  20
61.7147371
  30
0
  11
299.1862934
  21
68.4641371
  31
0
  0
LINE
  8
0
  10
299.1862934
  20
68.4641371
  30
0
  11
295.9562934
  21
68.4641371
  31
0
  0
LINE
  8
0
  10
295.9562934
  20
68.4641371
  30
0
  11
295.9562934
  21
69.9909371
  31
0
  0
LINE
  8
0
  10
295.9562934
  20
69.9909371
  30
0
  11
300.6562934
  21
69.9909371
  31
0
  0
LINE
  8
0
  10
300.6562934
  20
69.9909371
  30
0
  11
300.6562934
  21
83.9905371
  31
0
  0
LINE
  8
0
  10
300.6562934
  20
83.9905371
  30
0
  11
295.9562934
  21
83.9905371
  31
0
  0
LINE
  8
0
  10
295.9562934
  20
83.9905371
  30
0
  11
295.9562934
  21
85.5159371
  31
0
  0
LINE
  8
0
  10
295.9562934
  20
85.5159371
  30
0
  11
299.1862934
  21
85.5159371
  31
0
  0
LINE
  8
0
  10
299.1862934
  20
85.5159371
  30
0
  11
299.1862934
  21
92.2656371
  31
0
  0
LINE
  8
0
  10
299.1862934
  20
92.2656371
  30
0
  11
295.9562934
  21
92.2656371
  31
0
  0
LINE
  8
0
  10
295.9562934
  20
92.2656371
  30
0
  11
295.9562934
  21
93.0911371
  31
0
  0
LINE
  8
0
  10
295.9562934
  20
93.0911371
  30
0
  11
293.1562934
  21
93.0911371
  31
0
  0
CIRCLE
  8
0
  10
148.387587370277
  20
67.465870965859
  30
0
  40
2.500989065197
  0
LINE
  8
0
  10
27.1010234
  20
93.5155371
  30
0
  11
41.1018934
  21
93.5155371
  31
0
  0
LINE
  8
0
  10
41.1018934
  20
93.5155371
  30
0
  11
41.1018934
  21
79.5159371
  31
0
  0
LINE
  8
0
  10
41.1018934
  20
79.5159371
  30
0
  11
27.1010234
  21
79.5159371
  31
0
  0
LINE
  8
0
  10
27.1010234
  20
79.5159371
  30
0
  11
27.1010234
  21
93.5155371
  31
0
  0
LINE
  8
0
  10
50.9121934
  20
93.5155371
  30
0
  11
64.9129934
  21
93.5155371
  31
0
  0
LINE
  8
0
  10
64.9129934
  20
93.5155371
  30
0
  11
64.9129934
  21
79.5159371
  31
0
  0
LINE
  8
0
  10
64.9129934
  20
79.5159371
  30
0
  11
50.9121934
  21
79.5159371
  31
0
  0
LINE
  8
0
  10
50.9121934
  20
79.5159371
  30
0
  11
50.9121934
  21
93.5155371
  31
0
  0
LINE
  8
0
  10
69.9636934
  20
93.5155371
  30
0
  11
83.9629934
  21
93.5155371
  31
0
  0
LINE
  8
0
  10
83.9629934
  20
93.5155371
  30
0
  11
83.9629934
  21
79.5159371
  31
0
  0
LINE
  8
0
  10
83.9629934
  20
79.5159371
  30
0
  11
69.9636934
  21
79.5159371
  31
0
  0
LINE
  8
0
  10
69.9636934
  20
79.5159371
  30
0
  11
69.9636934
  21
93.5155371
  31
0
  0
LINE
  8
0
  10
89.0136934
  20
93.5155371
  30
0
  11
103.0129934
  21
93.5155371
  31
0
  0
LINE
  8
0
  10
103.0129934
  20
93.5155371
  30
0
  11
103.0129934
  21
79.5159371
  31
0
  0
LINE
  8
0
  10
103.0129934
  20
79.5159371
  30
0
  11
89.0136934
  21
79.5159371
  31
0
  0
LINE
  8
0
  10
89.0136934
  20
79.5159371
  30
0
  11
89.0136934
  21
93.5155371
  31
0
  0
LINE
  8
0
  10
108.0636934
  20
93.5155371
  30
0
  11
122.0632934
  21
93.5155371
  31
0
  0
LINE
  8
0
  10
122.0632934
  20
93.5155371
  30
0
  11
122.0632934
  21
79.5159371
  31
0
  0
LINE
  8
0
  10
122.0632934
  20
79.5159371
  30
0
  11
108.0636934
  21
79.5159371
  31
0
  0
LINE
  8
0
  10
108.0636934
  20
79.5159371
  30
0
  11
108.0636934
  21
93.5155371
  31
0
  0
LINE
  8
0
  10
127.1122934
  20
93.5155371
  30
0
  11
141.1132934
  21
93.5155371
  31
0
  0
LINE
  8
0
  10
141.1132934
  20
93.5155371
  30
0
  11
141.1132934
  21
79.5159371
  31
0
  0
LINE
  8
0
  10
141.1132934
  20
79.5159371
  30
0
  11
127.1122934
  21
79.5159371
  31
0
  0
LINE
  8
0
  10
127.1122934
  20
79.5159371
  30
0
  11
127.1122934
  21
93.5155371
  31
0
  0
LINE
  8
0
  10
146.1632934
  20
93.5155371
  30
0
  11
160.1632934
  21
93.5155371
  31
0
  0
LINE
  8
0
  10
160.1632934
  20
93.5155371
  30
0
  11
160.1632934
  21
79.5159371
  31
0
  0
LINE
  8
0
  10
160.1632934
  20
79.5159371
  30
0
  11
146.1632934
  21
79.5159371
  31
0
  0
LINE
  8
0
  10
146.1632934
  20
79.5159371
  30
0
  11
146.1632934
  21
93.5155371
  31
0
  0
LINE
  8
0
  10
165.2122934
  20
93.5155371
  30
0
  11
179.2132934
  21
93.5155371
  31
0
  0
LINE
  8
0
  10
179.2132934
  20
93.5155371
  30
0
  11
179.2132934
  21
79.5159371
  31
0
  0
LINE
  8
0
  10
179.2132934
  20
79.5159371
  30
0
  11
165.2122934
  21
79.5159371
  31
0
  0
LINE
  8
0
  10
165.2122934
  20
79.5159371
  30
0
  11
165.2122934
  21
93.5155371
  31
0
  0
LINE
  8
0
  10
184.2632934
  20
93.5155371
  30
0
  11
198.2632934
  21
93.5155371
  31
0
  0
LINE
  8
0
  10
198.2632934
  20
93.5155371
  30
0
  11
198.2632934
  21
79.5159371
  31
0
  0
LINE
  8
0
  10
198.2632934
  20
79.5159371
  30
0
  11
184.2632934
  21
79.5159371
  31
0
  0
LINE
  8
0
  10
184.2632934
  20
79.5159371
  30
0
  11
184.2632934
  21
93.5155371
  31
0
  0
LINE
  8
0
  10
203.3132934
  20
93.5155371
  30
0
  11
217.3132934
  21
93.5155371
  31
0
  0
LINE
  8
0
  10
217.3132934
  20
93.5155371
  30
0
  11
217.3132934
  21
79.5159371
  31
0
  0
LINE
  8
0
  10
217.3132934
  20
79.5159371
  30
0
  11
203.3132934
  21
79.5159371
  31
0
  0
LINE
  8
0
  10
203.3132934
  20
79.5159371
  30
0
  11
203.3132934
  21
93.5155371
  31
0
  0
LINE
  8
0
  10
222.3622934
  20
93.5155371
  30
0
  11
236.3632934
  21
93.5155371
  31
0
  0
LINE
  8
0
  10
236.3632934
  20
93.5155371
  30
0
  11
236.3632934
  21
79.5159371
  31
0
  0
LINE
  8
0
  10
236.3632934
  20
79.5159371
  30
0
  11
222.3622934
  21
79.5159371
  31
0
  0
LINE
  8
0
  10
222.3622934
  20
79.5159371
  30
0
  11
222.3622934
  21
93.5155371
  31
0
  0
LINE
  8
0
  10
241.4132934
  20
93.5155371
  30
0
  11
255.4132934
  21
93.5155371
  31
0
  0
LINE
  8
0
  10
255.4132934
  20
93.5155371
  30
0
  11
255.4132934
  21
79.5159371
  31
0
  0
LINE
  8
0
  10
255.4132934
  20
79.5159371
  30
0
  11
241.4132934
  21
79.5159371
  31
0
  0
LINE
  8
0
  10
241.4132934
  20
79.5159371
  30
0
  11
241.4132934
  21
93.5155371
  31
0
  0
LINE
  8
0
  10
260.4622934
  20
93.5155371
  30
0
  11
274.4632934
  21
93.5155371
  31
0
  0
LINE
  8
0
  10
274.4632934
  20
93.5155371
  30
0
  11
274.4632934
  21
79.5159371
  31
0
  0
LINE
  8
0
  10
274.4632934
  20
79.5159371
  30
0
  11
260.4622934
  21
79.5159371
  31
0
  0
LINE
  8
0
  10
260.4622934
  20
79.5159371
  30
0
  11
260.4622934
  21
93.5155371
  31
0
  0
CIRCLE
  8
0
  10
45.3889434
  20
86.865591297435
  30
0
  40
2.499750547329
  0
CIRCLE
  8
0
  10
280.238020784798
  20
86.864437827774
  30
0
  40
2.500038079847
  0
LINE
  8
0
  10
279.5122934
  20
112.5655371
  30
0
  11
279.5122934
  21
107.8651371
  31
0
  0
LINE
  8
0
  10
279.5122934
  20
107.8651371
  30
0
  11
277.9882934
  21
107.8651371
  31
0
  0
LINE
  8
0
  10
277.9882934
  20
107.8651371
  30
0
  11
277.9882934
  21
111.0951371
  31
0
  0
LINE
  8
0
  10
277.9882934
  20
111.0951371
  30
0
  11
271.2372934
  21
111.0951371
  31
0
  0
LINE
  8
0
  10
271.2372934
  20
111.0951371
  30
0
  11
271.2372934
  21
107.8651371
  31
0
  0
LINE
  8
0
  10
271.2372934
  20
107.8651371
  30
0
  11
270.4132934
  21
107.8651371
  31
0
  0
LINE
  8
0
  10
270.4132934
  20
107.8651371
  30
0
  11
270.4132934
  21
105.0662371
  31
0
  0
LINE
  8
0
  10
270.4132934
  20
105.0662371
  30
0
  11
271.2372934
  21
105.0662371
  31
0
  0
LINE
  8
0
  10
271.2372934
  20
105.0662371
  30
0
  11
271.2372934
  21
98.7948371
  31
0
  0
LINE
  8
0
  10
271.2372934
  20
98.7948371
  30
0
  11
272.9622934
  21
98.7948371
  31
0
  0
LINE
  8
0
  10
272.9622934
  20
98.7948371
  30
0
  11
272.9622934
  21
97.5957371
  31
0
  0
LINE
  8
0
  10
272.9622934
  20
97.5957371
  30
0
  11
276.2632934
  21
97.5957371
  31
0
  0
LINE
  8
0
  10
276.2632934
  20
97.5957371
  30
0
  11
276.2632934
  21
98.7948371
  31
0
  0
LINE
  8
0
  10
276.2632934
  20
98.7948371
  30
0
  11
277.9882934
  21
98.7948371
  31
0
  0
LINE
  8
0
  10
277.9882934
  20
98.7948371
  30
0
  11
277.9882934
  21
103.2652371
  31
0
  0
LINE
  8
0
  10
277.9882934
  20
103.2652371
  30
0
  11
279.5122934
  21
103.2652371
  31
0
  0
LINE
  8
0
  10
279.5122934
  20
103.2652371
  30
0
  11
279.5122934
  21
98.5659371
  31
0
  0
LINE
  8
0
  10
279.5122934
  20
98.5659371
  30
0
  11
293.5132934
  21
98.5659371
  31
0
  0
LINE
  8
0
  10
293.5132934
  20
98.5659371
  30
0
  11
293.5132934
  21
103.2652371
  31
0
  0
LINE
  8
0
  10
293.5132934
  20
103.2652371
  30
0
  11
295.0372934
  21
103.2652371
  31
0
  0
LINE
  8
0
  10
295.0372934
  20
103.2652371
  30
0
  11
295.0372934
  21
98.7948371
  31
0
  0
LINE
  8
0
  10
295.0372934
  20
98.7948371
  30
0
  11
296.7622934
  21
98.7948371
  31
0
  0
LINE
  8
0
  10
296.7622934
  20
98.7948371
  30
0
  11
296.7622934
  21
97.5957371
  31
0
  0
LINE
  8
0
  10
296.7622934
  20
97.5957371
  30
0
  11
300.0632934
  21
97.5957371
  31
0
  0
LINE
  8
0
  10
300.0632934
  20
97.5957371
  30
0
  11
300.0632934
  21
98.7948371
  31
0
  0
LINE
  8
0
  10
300.0632934
  20
98.7948371
  30
0
  11
301.7882934
  21
98.7948371
  31
0
  0
LINE
  8
0
  10
301.7882934
  20
98.7948371
  30
0
  11
301.7882934
  21
105.0662371
  31
0
  0
LINE
  8
0
  10
301.7882934
  20
105.0662371
  30
0
  11
302.6122934
  21
105.0662371
  31
0
  0
LINE
  8
0
  10
302.6122934
  20
105.0662371
  30
0
  11
302.6122934
  21
107.8651371
  31
0
  0
LINE
  8
0
  10
302.6122934
  20
107.8651371
  30
0
  11
301.7882934
  21
107.8651371
  31
0
  0
LINE
  8
0
  10
301.7882934
  20
107.8651371
  30
0
  11
301.7882934
  21
111.0951371
  31
0
  0
LINE
  8
0
  10
301.7882934
  20
111.0951371
  30
0
  11
295.0372934
  21
111.0951371
  31
0
  0
LINE
  8
0
  10
295.0372934
  20
111.0951371
  30
0
  11
295.0372934
  21
107.8651371
  31
0
  0
LINE
  8
0
  10
295.0372934
  20
107.8651371
  30
0
  11
293.5132934
  21
107.8651371
  31
0
  0
LINE
  8
0
  10
293.5132934
  20
107.8651371
  30
0
  11
293.5132934
  21
112.5655371
  31
0
  0
LINE
  8
0
  10
293.5132934
  20
112.5655371
  30
0
  11
279.5122934
  21
112.5655371
  31
0
  0
LINE
  8
0
  10
22.3385334
  20
112.5655371
  30
0
  11
36.3379934
  21
112.5655371
  31
0
  0
LINE
  8
0
  10
36.3379934
  20
112.5655371
  30
0
  11
36.3379934
  21
98.5659371
  31
0
  0
LINE
  8
0
  10
36.3379934
  20
98.5659371
  30
0
  11
22.3385334
  21
98.5659371
  31
0
  0
LINE
  8
0
  10
22.3385334
  20
98.5659371
  30
0
  11
22.3385334
  21
112.5655371
  31
0
  0
LINE
  8
0
  10
41.3884934
  20
112.5655371
  30
0
  11
55.3879934
  21
112.5655371
  31
0
  0
LINE
  8
0
  10
55.3879934
  20
112.5655371
  30
0
  11
55.3879934
  21
98.5659371
  31
0
  0
LINE
  8
0
  10
55.3879934
  20
98.5659371
  30
0
  11
41.3884934
  21
98.5659371
  31
0
  0
LINE
  8
0
  10
41.3884934
  20
98.5659371
  30
0
  11
41.3884934
  21
112.5655371
  31
0
  0
LINE
  8
0
  10
60.4386934
  20
112.5655371
  30
0
  11
74.4379934
  21
112.5655371
  31
0
  0
LINE
  8
0
  10
74.4379934
  20
112.5655371
  30
0
  11
74.4379934
  21
98.5659371
  31
0
  0
LINE
  8
0
  10
74.4379934
  20
98.5659371
  30
0
  11
60.4386934
  21
98.5659371
  31
0
  0
LINE
  8
0
  10
60.4386934
  20
98.5659371
  30
0
  11
60.4386934
  21
112.5655371
  31
0
  0
LINE
  8
0
  10
79.4872934
  20
112.5655371
  30
0
  11
93.4879934
  21
112.5655371
  31
0
  0
LINE
  8
0
  10
93.4879934
  20
112.5655371
  30
0
  11
93.4879934
  21
98.5659371
  31
0
  0
LINE
  8
0
  10
93.4879934
  20
98.5659371
  30
0
  11
79.4872934
  21
98.5659371
  31
0
  0
LINE
  8
0
  10
79.4872934
  20
98.5659371
  30
0
  11
79.4872934
  21
112.5655371
  31
0
  0
LINE
  8
0
  10
98.5386934
  20
112.5655371
  30
0
  11
112.5379934
  21
112.5655371
  31
0
  0
LINE
  8
0
  10
112.5379934
  20
112.5655371
  30
0
  11
112.5379934
  21
98.5659371
  31
0
  0
LINE
  8
0
  10
112.5379934
  20
98.5659371
  30
0
  11
98.5386934
  21
98.5659371
  31
0
  0
LINE
  8
0
  10
98.5386934
  20
98.5659371
  30
0
  11
98.5386934
  21
112.5655371
  31
0
  0
LINE
  8
0
  10
117.5886934
  20
112.5655371
  30
0
  11
131.5882934
  21
112.5655371
  31
0
  0
LINE
  8
0
  10
131.5882934
  20
112.5655371
  30
0
  11
131.5882934
  21
98.5659371
  31
0
  0
LINE
  8
0
  10
131.5882934
  20
98.5659371
  30
0
  11
117.5886934
  21
98.5659371
  31
0
  0
LINE
  8
0
  10
117.5886934
  20
98.5659371
  30
0
  11
117.5886934
  21
112.5655371
  31
0
  0
LINE
  8
0
  10
136.6382934
  20
112.5655371
  30
0
  11
150.6382934
  21
112.5655371
  31
0
  0
LINE
  8
0
  10
150.6382934
  20
112.5655371
  30
0
  11
150.6382934
  21
98.5659371
  31
0
  0
LINE
  8
0
  10
150.6382934
  20
98.5659371
  30
0
  11
136.6382934
  21
98.5659371
  31
0
  0
LINE
  8
0
  10
136.6382934
  20
98.5659371
  30
0
  11
136.6382934
  21
112.5655371
  31
0
  0
LINE
  8
0
  10
155.6882934
  20
112.5655371
  30
0
  11
169.6882934
  21
112.5655371
  31
0
  0
LINE
  8
0
  10
169.6882934
  20
112.5655371
  30
0
  11
169.6882934
  21
98.5659371
  31
0
  0
LINE
  8
0
  10
169.6882934
  20
98.5659371
  30
0
  11
155.6882934
  21
98.5659371
  31
0
  0
LINE
  8
0
  10
155.6882934
  20
98.5659371
  30
0
  11
155.6882934
  21
112.5655371
  31
0
  0
LINE
  8
0
  10
174.7372934
  20
112.5655371
  30
0
  11
188.7382934
  21
112.5655371
  31
0
  0
LINE
  8
0
  10
188.7382934
  20
112.5655371
  30
0
  11
188.7382934
  21
98.5659371
  31
0
  0
LINE
  8
0
  10
188.7382934
  20
98.5659371
  30
0
  11
174.7372934
  21
98.5659371
  31
0
  0
LINE
  8
0
  10
174.7372934
  20
98.5659371
  30
0
  11
174.7372934
  21
112.5655371
  31
0
  0
LINE
  8
0
  10
193.7882934
  20
112.5655371
  30
0
  11
207.7882934
  21
112.5655371
  31
0
  0
LINE
  8
0
  10
207.7882934
  20
112.5655371
  30
0
  11
207.7882934
  21
98.5659371
  31
0
  0
LINE
  8
0
  10
207.7882934
  20
98.5659371
  30
0
  11
193.7882934
  21
98.5659371
  31
0
  0
LINE
  8
0
  10
193.7882934
  20
98.5659371
  30
0
  11
193.7882934
  21
112.5655371
  31
0
  0
LINE
  8
0
  10
212.8372934
  20
112.5655371
  30
0
  11
226.8382934
  21
112.5655371
  31
0
  0
LINE
  8
0
  10
226.8382934
  20
112.5655371
  30
0
  11
226.8382934
  21
98.5659371
  31
0
  0
LINE
  8
0
  10
226.8382934
  20
98.5659371
  30
0
  11
212.8372934
  21
98.5659371
  31
0
  0
LINE
  8
0
  10
212.8372934
  20
98.5659371
  30
0
  11
212.8372934
  21
112.5655371
  31
0
  0
LINE
  8
0
  10
231.8882934
  20
112.5655371
  30
0
  11
245.8882934
  21
112.5655371
  31
0
  0
LINE
  8
0
  10
245.8882934
  20
112.5655371
  30
0
  11
245.8882934
  21
98.5659371
  31
0
  0
LINE
  8
0
  10
245.8882934
  20
98.5659371
  30
0
  11
231.8882934
  21
98.5659371
  31
0
  0
LINE
  8
0
  10
231.8882934
  20
98.5659371
  30
0
  11
231.8882934
  21
112.5655371
  31
0
  0
LINE
  8
0
  10
250.9382934
  20
112.5655371
  30
0
  11
264.9382934
  21
112.5655371
  31
0
  0
LINE
  8
0
  10
264.9382934
  20
112.5655371
  30
0
  11
264.9382934
  21
98.5659371
  31
0
  0
LINE
  8
0
  10
264.9382934
  20
98.5659371
  30
0
  11
250.9382934
  21
98.5659371
  31
0
  0
LINE
  8
0
  10
250.9382934
  20
98.5659371
  30
0
  11
250.9382934
  21
112.5655371
  31
0
  0
LINE
  8
0
  10
96.1574934
  20
22.3660871
  30
0
  11
110.1580934
  21
22.3660871
  31
0
  0
LINE
  8
0
  10
110.1580934
  20
22.3660871
  30
0
  11
110.1580934
  21
27.0666871
  31
0
  0
LINE
  8
0
  10
110.1580934
  20
27.0666871
  30
0
  11
111.6824934
  21
27.0666871
  31
0
  0
LINE
  8
0
  10
111.6824934
  20
27.0666871
  30
0
  11
111.6824934
  21
23.8364871
  31
0
  0
LINE
  8
0
  10
111.6824934
  20
23.8364871
  30
0
  11
118.4332934
  21
23.8364871
  31
0
  0
LINE
  8
0
  10
118.4332934
  20
23.8364871
  30
0
  11
118.4332934
  21
27.0666871
  31
0
  0
LINE
  8
0
  10
118.4332934
  20
27.0666871
  30
0
  11
119.2572934
  21
27.0666871
  31
0
  0
LINE
  8
0
  10
119.2572934
  20
27.0666871
  30
0
  11
119.2572934
  21
29.8654071
  31
0
  0
LINE
  8
0
  10
119.2572934
  20
29.8654071
  30
0
  11
118.4332934
  21
29.8654071
  31
0
  0
LINE
  8
0
  10
118.4332934
  20
29.8654071
  30
0
  11
118.4332934
  21
36.1354971
  31
0
  0
LINE
  8
0
  10
118.4332934
  20
36.1354971
  30
0
  11
116.7095934
  21
36.1354971
  31
0
  0
LINE
  8
0
  10
116.7095934
  20
36.1354971
  30
0
  11
116.7095934
  21
37.3357671
  31
0
  0
LINE
  8
0
  10
116.7095934
  20
37.3357671
  30
0
  11
113.4075934
  21
37.3357671
  31
0
  0
LINE
  8
0
  10
113.4075934
  20
37.3357671
  30
0
  11
113.4075934
  21
36.1354971
  31
0
  0
LINE
  8
0
  10
113.4075934
  20
36.1354971
  30
0
  11
111.6824934
  21
36.1354971
  31
0
  0
LINE
  8
0
  10
111.6824934
  20
36.1354971
  30
0
  11
111.6824934
  21
31.6665171
  31
0
  0
LINE
  8
0
  10
111.6824934
  20
31.6665171
  30
0
  11
110.1580934
  21
31.6665171
  31
0
  0
LINE
  8
0
  10
110.1580934
  20
31.6665171
  30
0
  11
110.1580934
  21
36.3656371
  31
0
  0
LINE
  8
0
  10
110.1580934
  20
36.3656371
  30
0
  11
96.1574934
  21
36.3656371
  31
0
  0
LINE
  8
0
  10
96.1574934
  20
36.3656371
  30
0
  11
96.1574934
  21
31.6665171
  31
0
  0
LINE
  8
0
  10
96.1574934
  20
31.6665171
  30
0
  11
94.6334934
  21
31.6665171
  31
0
  0
LINE
  8
0
  10
94.6334934
  20
31.6665171
  30
0
  11
94.6334934
  21
36.1354971
  31
0
  0
LINE
  8
0
  10
94.6334934
  20
36.1354971
  30
0
  11
92.9079934
  21
36.1354971
  31
0
  0
LINE
  8
0
  10
92.9079934
  20
36.1354971
  30
0
  11
92.9079934
  21
37.3357671
  31
0
  0
LINE
  8
0
  10
92.9079934
  20
37.3357671
  30
0
  11
89.6077934
  21
37.3357671
  31
0
  0
LINE
  8
0
  10
89.6077934
  20
37.3357671
  30
0
  11
89.6077934
  21
36.1354971
  31
0
  0
LINE
  8
0
  10
89.6077934
  20
36.1354971
  30
0
  11
87.8837934
  21
36.1354971
  31
0
  0
LINE
  8
0
  10
87.8837934
  20
36.1354971
  30
0
  11
87.8837934
  21
29.8654071
  31
0
  0
LINE
  8
0
  10
87.8837934
  20
29.8654071
  30
0
  11
87.0582934
  21
29.8654071
  31
0
  0
LINE
  8
0
  10
87.0582934
  20
29.8654071
  30
0
  11
87.0582934
  21
27.0666871
  31
0
  0
LINE
  8
0
  10
87.0582934
  20
27.0666871
  30
0
  11
87.8837934
  21
27.0666871
  31
0
  0
LINE
  8
0
  10
87.8837934
  20
27.0666871
  30
0
  11
87.8837934
  21
23.8364871
  31
0
  0
LINE
  8
0
  10
87.8837934
  20
23.8364871
  30
0
  11
94.6334934
  21
23.8364871
  31
0
  0
LINE
  8
0
  10
94.6334934
  20
23.8364871
  30
0
  11
94.6334934
  21
27.0666871
  31
0
  0
LINE
  8
0
  10
94.6334934
  20
27.0666871
  30
0
  11
96.1574934
  21
27.0666871
  31
0
  0
LINE
  8
0
  10
96.1574934
  20
27.0666871
  30
0
  11
96.1574934
  21
22.3660871
  31
0
  0
ENDSEC
  0
EOF
